<?xml version="1.0" encoding="utf-8"?>
<!-- Generator: Adobe Illustrator 25.2.1, SVG Export Plug-In . SVG Version: 6.00 Build 0)  -->
<svg version="1.1" id="Layer_1" xmlns="http://www.w3.org/2000/svg" xmlns:xlink="http://www.w3.org/1999/xlink" x="0px" y="0px"
	 width="256px" height="78.5px" viewBox="0 0 256 78.5" enable-background="new 0 0 256 78.5" xml:space="preserve">
<g>
	<g>
		<path fill="#181818" d="M239.1,71.4H16.8c-0.4,0-0.8-0.3-0.8-0.8c0-4.7-3.8-8.6-8.6-8.6c-0.4,0-0.8-0.3-0.8-0.8V17.2
			c0-0.4,0.3-0.8,0.8-0.8c4.7,0,8.6-3.8,8.6-8.6c0-0.4,0.3-0.8,0.8-0.8h222.3c0.4,0,0.8,0.3,0.8,0.8c0,4.7,3.8,8.6,8.6,8.6
			c0.4,0,0.8,0.3,0.8,0.8v44.1c0,0.4-0.3,0.8-0.8,0.8c-4.7,0-8.6,3.8-8.6,8.6C239.9,71,239.6,71.4,239.1,71.4z M17.5,69.9h220.9
			c0.4-4.9,4.3-8.9,9.3-9.3V17.9c-4.9-0.4-8.9-4.3-9.3-9.3H17.5c-0.4,4.9-4.3,8.9-9.3,9.3v42.7C13.2,60.9,17.2,64.9,17.5,69.9z"/>
	</g>
	<g>
		<path fill="#181818" d="M255.2,78.5H0.8c-0.4,0-0.8-0.3-0.8-0.8v-77C0,0.3,0.3,0,0.8,0h254.5c0.4,0,0.8,0.3,0.8,0.8v77
			C256,78.1,255.6,78.5,255.2,78.5z M1.5,77h253V1.5H1.5V77z"/>
	</g>
	<g>
		<path fill="#181818" d="M248.2,12c-2.3,0-4.2-1.9-4.2-4.2c0-2.3,1.9-4.2,4.2-4.2c2.3,0,4.2,1.9,4.2,4.2
			C252.4,10.1,250.5,12,248.2,12z M248.2,5.1c-1.5,0-2.7,1.2-2.7,2.7s1.2,2.7,2.7,2.7c1.5,0,2.7-1.2,2.7-2.7S249.7,5.1,248.2,5.1z"
			/>
	</g>
	<g>
		<path fill="#181818" d="M248.2,74.8c-2.3,0-4.2-1.9-4.2-4.2c0-2.3,1.9-4.2,4.2-4.2c2.3,0,4.2,1.9,4.2,4.2
			C252.4,72.9,250.5,74.8,248.2,74.8z M248.2,67.9c-1.5,0-2.7,1.2-2.7,2.7s1.2,2.7,2.7,2.7c1.5,0,2.7-1.2,2.7-2.7
			S249.7,67.9,248.2,67.9z"/>
	</g>
	<g>
		<path fill="#181818" d="M7.5,12c-2.3,0-4.2-1.9-4.2-4.2c0-2.3,1.9-4.2,4.2-4.2c2.3,0,4.2,1.9,4.2,4.2C11.7,10.1,9.8,12,7.5,12z
			 M7.5,5.1C6,5.1,4.8,6.3,4.8,7.8s1.2,2.7,2.7,2.7c1.5,0,2.7-1.2,2.7-2.7S9,5.1,7.5,5.1z"/>
	</g>
	<g>
		<path fill="#181818" d="M7.5,74.8c-2.3,0-4.2-1.9-4.2-4.2c0-2.3,1.9-4.2,4.2-4.2c2.3,0,4.2,1.9,4.2,4.2
			C11.7,72.9,9.8,74.8,7.5,74.8z M7.5,67.9c-1.5,0-2.7,1.2-2.7,2.7s1.2,2.7,2.7,2.7c1.5,0,2.7-1.2,2.7-2.7S9,67.9,7.5,67.9z"/>
	</g>
</g>
</svg>
