<?xml version="1.0" encoding="utf-8"?>
<!-- Generator: Adobe Illustrator 25.2.1, SVG Export Plug-In . SVG Version: 6.00 Build 0)  -->
<svg version="1.1" id="Layer_1" xmlns="http://www.w3.org/2000/svg" xmlns:xlink="http://www.w3.org/1999/xlink" x="0px" y="0px"
	 width="378.6px" height="28.7px" viewBox="0 0 378.6 28.7" enable-background="new 0 0 378.6 28.7" xml:space="preserve">
<g>
	<g>
		<path fill="#181818" d="M189.3,27.3c-0.2,0-0.4,0-0.6-0.2l-0.1-0.1c-2.1-2.2-7-7.2-13.3-11.5c-7.4,5.3-14.2,8-20,8
			c-0.1,0-0.1,0-0.2,0c-5.7,0-8.4-4.5-8.4-8.5c-0.1-4.1,2.5-8.6,8.2-8.8c5.9-0.2,12.7,2.3,20.4,7.4c6.4-4.7,11.4-10,13.3-12.1
			c0.3-0.3,0.8-0.3,1.1,0c1.9,2.1,6.9,7.4,13.3,12.1c7.7-5.2,14.6-7.7,20.4-7.4c5.7,0.2,8.2,4.7,8.2,8.8c-0.1,4.1-2.7,8.5-8.4,8.5
			c-0.1,0-0.1,0-0.2,0c-5.8,0-12.6-2.7-20-8c-6.3,4.4-11.2,9.4-13.3,11.5C189.7,27.2,189.5,27.3,189.3,27.3z M188.7,26.1l0.5,0.5
			L188.7,26.1z M176.7,14.6c5.8,4.1,10.3,8.6,12.6,10.9c2.3-2.3,6.8-6.9,12.6-10.9c-5.8-4.3-10.4-9-12.6-11.4
			C187.1,5.6,182.5,10.3,176.7,14.6z M204.5,14.6c7,4.9,13.3,7.4,18.7,7.4c0.1,0,0.1,0,0.2,0c4.7,0,6.9-3.7,6.9-7.1
			c0-3.4-2-7.1-6.7-7.3C218.1,7.6,211.7,9.9,204.5,14.6z M155.7,7.7c-0.2,0-0.4,0-0.7,0c-4.7,0.2-6.8,3.9-6.7,7.3
			c0.1,3.4,2.2,7,6.9,7.1c0.1,0,0.1,0,0.2,0c5.4,0,11.7-2.5,18.7-7.4C167.2,10.1,161,7.7,155.7,7.7z"/>
	</g>
	<g>
		<g>
			<path fill="#181818" d="M362.1,15.1H231c-0.4,0-0.8-0.3-0.8-0.8c0-0.4,0.3-0.8,0.8-0.8h131.1c0.4,0,0.8,0.3,0.8,0.8
				C362.8,14.8,362.5,15.1,362.1,15.1z"/>
		</g>
		<g>
			<path fill="#181818" d="M369.9,23c-0.2,0-0.4-0.1-0.5-0.2l-7.9-7.9c-0.1-0.1-0.2-0.3-0.2-0.5c0-0.2,0.1-0.4,0.2-0.5l7.9-7.9
				c0.3-0.3,0.8-0.3,1.1,0l7.9,7.9c0.1,0.1,0.2,0.3,0.2,0.5c0,0.2-0.1,0.4-0.2,0.5l-7.9,7.9C370.3,22.9,370.1,23,369.9,23z
				 M363.1,14.4l6.8,6.8l6.8-6.8l-6.8-6.8L363.1,14.4z"/>
		</g>
		<g>
			<path fill="#181818" d="M353.8,15.1c-0.2,0-0.4-0.1-0.5-0.2c-0.3-0.3-0.3-0.8,0-1.1l13.6-13.6c0.3-0.3,0.8-0.3,1.1,0
				s0.3,0.8,0,1.1l-13.6,13.6C354.2,15.1,354,15.1,353.8,15.1z"/>
		</g>
		<g>
			<path fill="#181818" d="M367.4,28.7c-0.2,0-0.4-0.1-0.5-0.2l-13.6-13.6c-0.3-0.3-0.3-0.8,0-1.1c0.3-0.3,0.8-0.3,1.1,0L368,27.5
				c0.3,0.3,0.3,0.8,0,1.1C367.8,28.7,367.6,28.7,367.4,28.7z"/>
		</g>
	</g>
	<g>
		<g>
			<path fill="#181818" d="M147.6,15.1H16.5c-0.4,0-0.8-0.3-0.8-0.8c0-0.4,0.3-0.8,0.8-0.8h131.1c0.4,0,0.8,0.3,0.8,0.8
				C148.3,14.8,148,15.1,147.6,15.1z"/>
		</g>
		<g>
			<path fill="#181818" d="M8.6,23c-0.2,0-0.4-0.1-0.5-0.2l-7.9-7.9C0.1,14.8,0,14.6,0,14.4c0-0.2,0.1-0.4,0.2-0.5L8.1,6
				c0.3-0.3,0.8-0.3,1.1,0l7.9,7.9c0.1,0.1,0.2,0.3,0.2,0.5c0,0.2-0.1,0.4-0.2,0.5l-7.9,7.9C9,22.9,8.8,23,8.6,23z M1.8,14.4
				l6.8,6.8l6.8-6.8L8.6,7.6L1.8,14.4z"/>
		</g>
		<g>
			<path fill="#181818" d="M24.7,15.1c-0.2,0-0.4-0.1-0.5-0.2L10.6,1.3c-0.3-0.3-0.3-0.8,0-1.1c0.3-0.3,0.8-0.3,1.1,0l13.6,13.6
				c0.3,0.3,0.3,0.8,0,1.1C25.1,15.1,24.9,15.1,24.7,15.1z"/>
		</g>
		<g>
			<path fill="#181818" d="M11.1,28.7c-0.2,0-0.4-0.1-0.5-0.2c-0.3-0.3-0.3-0.8,0-1.1l13.6-13.6c0.3-0.3,0.8-0.3,1.1,0
				c0.3,0.3,0.3,0.8,0,1.1L11.7,28.5C11.5,28.7,11.3,28.7,11.1,28.7z"/>
		</g>
	</g>
	<g>
		<path fill="#181818" d="M201.8,27.6c-0.2,0-0.4-0.1-0.5-0.2l-6.3-6.3c-0.3-0.3-0.3-0.8,0-1.1c0.3-0.3,0.8-0.3,1.1,0l6.3,6.3
			c0.3,0.3,0.3,0.8,0,1.1C202.2,27.6,202,27.6,201.8,27.6z"/>
	</g>
	<g>
		<path fill="#181818" d="M183.2,9c-0.2,0-0.4-0.1-0.5-0.2l-5.5-5.5c-0.3-0.3-0.3-0.8,0-1.1c0.3-0.3,0.8-0.3,1.1,0l5.5,5.5
			c0.3,0.3,0.3,0.8,0,1.1C183.5,8.9,183.4,9,183.2,9z"/>
	</g>
	<g>
		<path fill="#181818" d="M176.8,27.6c-0.2,0-0.4-0.1-0.5-0.2c-0.3-0.3-0.3-0.8,0-1.1l6.3-6.3c0.3-0.3,0.8-0.3,1.1,0
			c0.3,0.3,0.3,0.8,0,1.1l-6.3,6.3C177.1,27.6,177,27.6,176.8,27.6z"/>
	</g>
	<g>
		<path fill="#181818" d="M195.4,9c-0.2,0-0.4-0.1-0.5-0.2c-0.3-0.3-0.3-0.8,0-1.1l5.5-5.5c0.3-0.3,0.8-0.3,1.1,0
			c0.3,0.3,0.3,0.8,0,1.1l-5.5,5.5C195.8,8.9,195.6,9,195.4,9z"/>
	</g>
</g>
</svg>
