<?xml version="1.0" encoding="utf-8"?>
<!-- Generator: Adobe Illustrator 25.2.1, SVG Export Plug-In . SVG Version: 6.00 Build 0)  -->
<svg version="1.1" id="Layer_1" xmlns="http://www.w3.org/2000/svg" xmlns:xlink="http://www.w3.org/1999/xlink" x="0px" y="0px"
	 width="378.6px" height="53.9px" viewBox="0 0 378.6 53.9" enable-background="new 0 0 378.6 53.9" xml:space="preserve">
<path fill="#181818" d="M188.7,53.9c-0.3,0-0.5-0.1-0.7-0.4c-5.4-9.5-12.8-18.3-21.5-25.6c-0.5,0.4-1.1,0.9-1.6,1.3
	c-6.6,5.1-13.7,9.8-21.4,10c-4,0.1-8.2-1.6-11-4.4c-2.3-2.2-3.5-4.9-3.5-7.9s1.2-5.6,3.5-7.9c2.8-2.8,7-4.4,11-4.4
	c7.7,0.1,14.9,4.9,21.4,10c0.5,0.4,1.1,0.8,1.6,1.3c8.7-7.3,16.1-16.1,21.5-25.6c0.3-0.5,1-0.5,1.3,0c5.4,9.5,12.8,18.3,21.5,25.6
	c0.5-0.4,1.1-0.9,1.6-1.3c6.6-5.1,13.7-9.8,21.4-10c4,0,8.2,1.6,11,4.4c2.3,2.2,3.5,4.9,3.5,7.9s-1.2,5.6-3.5,7.9
	c-2.8,2.8-7,4.4-11,4.4c-7.7-0.1-14.9-4.9-21.4-10c-0.5-0.4-1.1-0.8-1.6-1.3c-8.7,7.3-16.1,16.1-21.5,25.6
	C189.3,53.7,189,53.9,188.7,53.9z M167.7,26.9c8.4,7.1,15.6,15.5,21,24.7c5.4-9.2,12.6-17.6,21-24.7c-8.4-7.1-15.6-15.5-21-24.7
	C183.4,11.4,176.2,19.9,167.7,26.9z M143.3,16.2c-3.5,0-7.2,1.5-9.7,3.9c-2,1.9-3,4.3-3,6.8c0,2.5,1,4.9,3,6.8
	c2.5,2.5,6.3,3.9,9.9,3.9c7.3-0.1,14.2-4.7,20.5-9.7c0.4-0.3,0.9-0.7,1.3-1.1c-0.4-0.4-0.9-0.7-1.3-1.1c-6.4-4.9-13.2-9.5-20.5-9.7
	C143.4,16.2,143.4,16.2,143.3,16.2z M212.1,26.9c0.4,0.4,0.9,0.7,1.3,1.1c6.4,4.9,13.2,9.5,20.5,9.7c3.6,0.1,7.4-1.4,9.9-3.9
	c2-1.9,3-4.3,3-6.8c0-2.5-1-4.9-3-6.8c-2.5-2.5-6.3-4-9.9-3.9c-7.3,0.1-14.2,4.7-20.5,9.7C213,26.2,212.6,26.6,212.1,26.9z"/>
<path fill="#181818" d="M234.1,30.9c-2.2,0-4-1.8-4-4c0-2.2,1.8-4,4-4c2.2,0,4,1.8,4,4C238,29.1,236.2,30.9,234.1,30.9z M234.1,24.4
	c-1.4,0-2.5,1.1-2.5,2.5c0,1.4,1.1,2.5,2.5,2.5c1.4,0,2.5-1.1,2.5-2.5C236.5,25.6,235.4,24.4,234.1,24.4z"/>
<path fill="#181818" d="M143.5,30.9c-2.2,0-4-1.8-4-4c0-2.2,1.8-4,4-4c2.2,0,4,1.8,4,4C147.5,29.1,145.7,30.9,143.5,30.9z
	 M143.5,24.4c-1.4,0-2.5,1.1-2.5,2.5c0,1.4,1.1,2.5,2.5,2.5c1.4,0,2.5-1.1,2.5-2.5C146,25.6,144.9,24.4,143.5,24.4z"/>
<path fill="#181818" d="M234.2,47.1c-0.1,0-0.2,0-0.2,0c-8.1-0.1-15.3-4.6-21.4-8.8c-10-6.9-18.4-15.4-24.4-24.8
	c-0.2-0.3-0.1-0.8,0.2-1c0.3-0.2,0.8-0.1,1,0.2c5.9,9.2,14.2,17.6,24,24.3c5.9,4.1,12.9,8.4,20.6,8.5c3.8,0,7.9-1.5,10.4-3.9
	c1.6-1.6,2.5-3.5,2.5-5.4c0-4.9-4.9-7.8-9.7-8.5c-0.4-0.1-0.7-0.4-0.6-0.9c0.1-0.4,0.4-0.7,0.9-0.6c5.5,0.8,11,4.2,11,10
	c0,2.4-1,4.6-2.9,6.5C242.8,45.4,238.4,47.1,234.2,47.1z"/>
<path fill="#181818" d="M188.7,41.5c-0.1,0-0.3,0-0.4-0.1c-0.3-0.2-0.4-0.7-0.2-1c6-9.3,14.5-17.9,24.4-24.8
	c6.1-4.2,13.3-8.7,21.4-8.8c4.2,0,8.7,1.6,11.5,4.4c1.9,1.9,2.9,4.1,2.9,6.5c0,5.8-5.5,9.2-11,10c-0.4,0.1-0.8-0.2-0.9-0.6
	c-0.1-0.4,0.2-0.8,0.6-0.9c4.7-0.7,9.7-3.7,9.7-8.5c0-2-0.9-3.8-2.5-5.4c-2.5-2.5-6.6-4-10.4-3.9c-7.7,0.1-14.6,4.5-20.6,8.5
	c-9.8,6.7-18.1,15.2-24,24.3C189.2,41.4,189,41.5,188.7,41.5z"/>
<path fill="#181818" d="M188.8,41.5c-0.2,0-0.5-0.1-0.6-0.3c-5.9-9.2-14.2-17.6-24-24.3c-5.9-4.1-12.9-8.4-20.6-8.5
	c-3.9,0-7.9,1.5-10.4,3.9c-1.6,1.6-2.5,3.5-2.5,5.4c0,4.9,4.9,7.8,9.7,8.5c0.4,0.1,0.7,0.4,0.6,0.9c-0.1,0.4-0.4,0.7-0.9,0.6
	c-5.5-0.8-11-4.2-11-10c0-2.4,1-4.6,2.9-6.5c2.8-2.7,7.3-4.4,11.5-4.4c8.1,0.1,15.3,4.6,21.4,8.8c10,6.9,18.5,15.4,24.4,24.8
	c0.2,0.3,0.1,0.8-0.2,1C189.1,41.4,189,41.5,188.8,41.5z"/>
<path fill="#181818" d="M143.4,47.1c-4.2,0-8.6-1.7-11.3-4.4c-1.9-1.9-2.9-4.1-2.9-6.5c0-5.8,5.5-9.2,11-10c0.4-0.1,0.8,0.2,0.9,0.6
	c0.1,0.4-0.2,0.8-0.6,0.9c-4.8,0.7-9.7,3.7-9.7,8.5c0,2,0.9,3.8,2.5,5.4c2.5,2.5,6.6,4,10.4,3.9c7.6-0.1,14.6-4.5,20.6-8.5
	c9.8-6.7,18.1-15.2,24-24.3c0.2-0.4,0.7-0.5,1-0.2c0.3,0.2,0.4,0.7,0.2,1c-6,9.3-14.5,17.9-24.4,24.8c-6.1,4.2-13.3,8.7-21.4,8.8
	C143.5,47.1,143.5,47.1,143.4,47.1z"/>
</svg>
