<?xml version="1.0" encoding="utf-8"?>
<!-- Generator: Adobe Illustrator 25.2.1, SVG Export Plug-In . SVG Version: 6.00 Build 0)  -->
<svg version="1.1" id="Layer_1" xmlns="http://www.w3.org/2000/svg" xmlns:xlink="http://www.w3.org/1999/xlink" x="0px" y="0px"
	 width="494px" height="91.5px" viewBox="0 0 494 91.5" enable-background="new 0 0 494 91.5" xml:space="preserve">
<path fill="#181818" d="M25,0c-0.4,0-0.8,0.3-0.8,0.8c0,7.6-6.2,13.8-13.8,13.8c-0.3,0-0.6,0.2-0.7,0.5L0,45.5c0,0.1,0,0.3,0,0.5
	l9.7,30.4c0.1,0.3,0.4,0.5,0.7,0.5c7.6,0,13.8,6.2,13.8,13.8c0,0.4,0.3,0.8,0.8,0.8h444c0.4,0,0.8-0.3,0.8-0.8
	c0-7.6,6.2-13.8,13.8-13.8c0.3,0,0.6-0.2,0.7-0.5L494,46c0-0.1,0-0.3,0-0.5l-9.7-30.4c-0.1-0.3-0.4-0.5-0.7-0.5
	c-7.6,0-13.8-6.2-13.8-13.8c0-0.4-0.3-0.8-0.8-0.8H25z M468.3,1.5c0.4,7.9,6.8,14.3,14.8,14.6l9.5,29.7L483,75.4
	c-7.9,0.3-14.4,6.6-14.8,14.6H25.7C25.4,82,18.9,75.7,11,75.4L1.5,45.7L11,16.1c7.9-0.3,14.4-6.6,14.8-14.6H468.3z"/>
</svg>
