<?xml version="1.0" encoding="utf-8"?>
<!-- Generator: Adobe Illustrator 25.2.1, SVG Export Plug-In . SVG Version: 6.00 Build 0)  -->
<svg version="1.1" id="Layer_1" xmlns="http://www.w3.org/2000/svg" xmlns:xlink="http://www.w3.org/1999/xlink" x="0px" y="0px"
	 width="91.5px" height="91.5px" viewBox="0 0 91.5 91.5" enable-background="new 0 0 91.5 91.5" xml:space="preserve">
<g>
	<g>
		<path fill="#181818" d="M42.3,29.1c3,0.9,6.3,3.6,8.4,6.9c2.8-2,6-3.6,9.4-4.8c0.3-0.1,0.6,0,0.8,0.2c0.2,0.2,0.3,0.5,0.2,0.8
			c-1.2,3.4-2.8,6.6-4.8,9.4c3.4,2.1,6,5.3,6.9,8.4c0.1,0.3,0,0.6-0.3,0.8c-0.3,0.2-0.6,0.2-0.9,0c-2.1-1.5-6.3-2.5-9.3-2.5
			c-3.3,0-7.7,0.7-10.4,2.7c-0.3,0.2-0.7,0.2-1-0.1c-0.3-0.3-0.3-0.7-0.1-1c2-2.6,2.7-7.1,2.7-10.4c0-2.9-0.9-7.2-2.5-9.3
			c-0.2-0.3-0.2-0.6,0-0.9c0.1-0.2,0.4-0.3,0.6-0.3C42.2,29.1,42.3,29.1,42.3,29.1z M52.7,46.8c2.4,0,5.7,0.6,8.2,1.7
			c-1.4-2.5-3.9-4.7-6.1-6c-0.2-0.1-0.3-0.3-0.4-0.5c0-0.2,0-0.4,0.1-0.6c1.8-2.4,3.3-5.2,4.5-8.1c-3,1.2-5.7,2.7-8.1,4.5
			c-0.2,0.1-0.4,0.2-0.6,0.1c-0.2,0-0.4-0.2-0.5-0.4c-1.3-2.2-3.5-4.7-6-6.1c1.1,2.5,1.7,5.8,1.7,8.2c0,1.4-0.1,5.4-1.6,8.8
			C47.3,46.9,51.4,46.8,52.7,46.8z"/>
	</g>
	<g>
		<g>
			<path fill="#181818" d="M0.8,0C0.3,0,0,0.3,0,0.8l0,90c0,0.4,0.3,0.8,0.8,0.8h90c0.4,0,0.8-0.3,0.8-0.8c0-0.4-0.3-0.8-0.8-0.8
				H1.5V0.8C1.5,0.3,1.2,0,0.8,0z"/>
		</g>
		<g>
			<path fill="#181818" d="M0.7,62.7c-0.1,0-0.3,0-0.4,0.1c-0.3,0.2-0.4,0.7-0.2,1c3.5,5.1,14.7,7.7,22.1,5.4
				c-2.2,7.4,0.3,18.6,5.4,22.1c0.3,0.2,0.8,0.1,1-0.2c0.2-0.3,0.1-0.8-0.2-1c-4.9-3.3-7.2-15.2-4.3-21.8c0.1-0.3,0.1-0.6-0.2-0.8
				c-0.2-0.2-0.5-0.3-0.8-0.2C16.5,70.2,4.7,67.9,1.4,63C1.2,62.8,1,62.7,0.7,62.7z"/>
		</g>
		<g>
			<path fill="#181818" d="M30.4,30.2c3.4,3.2,5.4,8,5.4,13c0,6-3.5,11.9-8.9,15c-4.7,2.7-10.8,3.1-16.3,1.1C4.5,56.9,0,50.6,0,44.2
				c0-0.4,0.3-0.8,0.8-0.8c0.4,0,0.8,0.3,0.8,0.8c0,5.8,4.1,11.6,9.7,13.6c5.1,1.9,10.7,1.5,15-1c4.9-2.8,8.1-8.2,8.1-13.7
				c0-4.6-1.8-8.9-4.9-11.9c-3-2.8-7-4.1-11.4-3.8c-3.4,0.2-6.1,3.2-6.2,6.7c0,0.3,0,0.5,0,0.8c0.1,0.7,1.4,1.2,2.2,1.1
				c0.7,0,1.3-0.3,2-1c0.1-0.1,0.3-0.2,0.4-0.3c0.6-0.5,1.3-1.2,2.3-1.4c1.4-0.3,3,0.3,3.9,1.5c0.9,1.3,0.8,3.1-0.2,4.5
				c-0.9,1.2-2.2,1.9-3.9,2c-2.2,0.2-4.5-0.5-6-1.9c-1.4-1.3-2.3-3.3-2.2-5.4c0-4.3,3.4-7.9,7.6-8.2c0.4,0,0.9,0,1.3,0
				C23.5,25.9,27.4,27.4,30.4,30.2z M12.7,37.4c0.2,0.4,0.5,0.8,0.9,1.1c1.2,1.1,3.2,1.7,4.9,1.5c0.9-0.1,2.1-0.4,2.8-1.5
				c0.6-0.8,0.7-2,0.1-2.7c-0.5-0.7-1.5-1.1-2.4-0.9c-0.6,0.1-1,0.5-1.6,1c-0.1,0.1-0.3,0.3-0.4,0.4c-0.6,0.6-1.6,1.3-3,1.3
				c0,0-0.1,0-0.1,0C13.6,37.6,13.1,37.5,12.7,37.4z"/>
		</g>
		<g>
			<path fill="#181818" d="M61.3,61.1c3.1,3.3,4.6,7.6,4.2,12.6c-0.3,4.2-3.9,7.5-8.2,7.6c-2.1,0-4.1-0.8-5.4-2.2
				c-1.4-1.5-2.1-3.9-1.9-6c0.2-1.7,0.9-3,2-3.9c1.3-1,3.2-1.1,4.5-0.2c1.2,0.9,1.8,2.4,1.5,3.9c-0.2,1-0.8,1.7-1.4,2.3
				c-0.1,0.1-0.2,0.3-0.3,0.4c-0.6,0.8-0.9,1.4-1,2c0,0.8,0.4,2.1,1.1,2.2c0.3,0,0.5,0,0.8,0c3.5,0,6.5-2.7,6.7-6.2
				c0.3-4.5-1-8.4-3.8-11.4c-2.9-3.1-7.3-4.9-11.9-4.9c-5.5,0-10.8,3.2-13.7,8.1c-2.5,4.3-2.8,9.9-1,15c2.1,5.6,7.8,9.7,13.6,9.7
				c0.4,0,0.8,0.3,0.8,0.8c0,0.4-0.3,0.8-0.8,0.8c-6.4,0-12.8-4.5-15-10.7c-2-5.5-1.6-11.6,1.1-16.3c3.1-5.4,9-8.9,15-8.9
				C53.3,55.7,58.1,57.6,61.3,61.1z M53.9,77.4c0-1.3,0.8-2.3,1.3-3c0.1-0.1,0.3-0.3,0.4-0.4c0.5-0.5,0.9-1,1-1.6
				c0.2-0.9-0.2-1.8-0.9-2.4c-0.7-0.5-1.9-0.5-2.7,0.1c-1,0.8-1.4,2-1.5,2.8c-0.2,1.7,0.4,3.7,1.5,4.9c0.3,0.3,0.7,0.6,1.1,0.9
				C54,78.4,53.9,77.8,53.9,77.4z"/>
		</g>
	</g>
</g>
</svg>
