<?xml version="1.0" encoding="utf-8"?>
<!-- Generator: Adobe Illustrator 25.2.1, SVG Export Plug-In . SVG Version: 6.00 Build 0)  -->
<svg version="1.1" id="Layer_1" xmlns="http://www.w3.org/2000/svg" xmlns:xlink="http://www.w3.org/1999/xlink" x="0px" y="0px"
	 width="91.5px" height="91.5px" viewBox="0 0 91.5 91.5" enable-background="new 0 0 91.5 91.5" xml:space="preserve">
<g>
	<g>
		<path fill="#181818" d="M49.2,62.4c-3-0.9-6.3-3.6-8.4-6.9c-2.8,2-6,3.6-9.4,4.8c-0.3,0.1-0.6,0-0.8-0.2c-0.2-0.2-0.3-0.5-0.2-0.8
			c1.2-3.4,2.8-6.6,4.8-9.4c-3.4-2.1-6-5.3-6.9-8.4c-0.1-0.3,0-0.6,0.3-0.8c0.3-0.2,0.6-0.2,0.9,0c2.1,1.5,6.3,2.5,9.3,2.5
			c3.3,0,7.7-0.7,10.4-2.7c0.3-0.2,0.7-0.2,1,0.1c0.3,0.3,0.3,0.7,0.1,1c-2,2.6-2.7,7.1-2.7,10.4c0,2.9,0.9,7.2,2.5,9.3
			c0.2,0.3,0.2,0.6,0,0.9c-0.1,0.2-0.4,0.3-0.6,0.3C49.3,62.4,49.2,62.4,49.2,62.4z M38.8,44.7c-2.4,0-5.7-0.6-8.2-1.7
			c1.4,2.5,3.9,4.7,6.1,6c0.2,0.1,0.3,0.3,0.4,0.5c0,0.2,0,0.4-0.1,0.6c-1.8,2.4-3.3,5.2-4.5,8.1c3-1.2,5.7-2.7,8.1-4.5
			c0.2-0.1,0.4-0.2,0.6-0.1c0.2,0,0.4,0.2,0.5,0.4c1.3,2.2,3.5,4.7,6,6.1c-1.1-2.5-1.7-5.8-1.7-8.2c0-1.4,0.1-5.4,1.6-8.8
			C44.2,44.6,40.2,44.7,38.8,44.7z"/>
	</g>
	<g>
		<g>
			<path fill="#181818" d="M90.8,91.5c0.4,0,0.8-0.3,0.8-0.8v-90c0-0.4-0.3-0.8-0.8-0.8l-90,0C0.3,0,0,0.3,0,0.8
				c0,0.4,0.3,0.7,0.8,0.7H90v89.3C90,91.2,90.3,91.5,90.8,91.5z"/>
		</g>
		<g>
			<path fill="#181818" d="M90.8,28.8c0.1,0,0.3,0,0.4-0.1c0.3-0.2,0.4-0.7,0.2-1c-3.5-5.1-14.7-7.7-22.1-5.4
				c2.2-7.4-0.3-18.6-5.4-22.1c-0.3-0.2-0.8-0.1-1,0.2c-0.2,0.3-0.1,0.8,0.2,1c4.9,3.3,7.2,15.2,4.3,21.8c-0.1,0.3-0.1,0.6,0.2,0.8
				c0.2,0.2,0.5,0.3,0.8,0.2c6.7-2.9,18.5-0.5,21.8,4.3C90.3,28.7,90.5,28.8,90.8,28.8z"/>
		</g>
		<g>
			<path fill="#181818" d="M61.1,61.3c-3.4-3.2-5.4-8-5.4-13c0-6,3.5-11.9,8.9-15c4.7-2.7,10.8-3.1,16.3-1.1
				c6.2,2.3,10.7,8.6,10.7,15c0,0.4-0.3,0.8-0.8,0.8c-0.4,0-0.8-0.3-0.8-0.8c0-5.8-4.1-11.6-9.7-13.6c-5.1-1.9-10.7-1.5-15,1
				c-4.9,2.8-8.1,8.2-8.1,13.7c0,4.6,1.8,8.9,4.9,11.9c3,2.8,7,4.1,11.4,3.8c3.4-0.2,6.1-3.2,6.2-6.7c0-0.3,0-0.5,0-0.8
				c-0.1-0.7-1.4-1.2-2.2-1.1c-0.7,0-1.3,0.3-2,1c-0.1,0.1-0.3,0.2-0.4,0.3c-0.6,0.5-1.3,1.2-2.3,1.4c-1.4,0.3-3-0.3-3.9-1.5
				C68,55.4,68,53.5,69,52.1c0.9-1.2,2.2-1.9,3.9-2c2.2-0.2,4.5,0.5,6,1.9c1.4,1.3,2.3,3.3,2.2,5.4c0,4.3-3.4,7.9-7.6,8.2
				c-0.4,0-0.9,0-1.3,0C68,65.6,64.1,64.1,61.1,61.3z M78.8,54.2c-0.2-0.4-0.5-0.8-0.9-1.1c-1.2-1.1-3.2-1.7-4.9-1.5
				C72.2,51.7,71,52,70.2,53c-0.6,0.8-0.7,2-0.1,2.7c0.5,0.7,1.5,1.1,2.4,0.9c0.6-0.1,1-0.5,1.6-1c0.1-0.1,0.3-0.3,0.4-0.4
				c0.6-0.6,1.6-1.3,3-1.3c0,0,0.1,0,0.1,0C77.9,53.9,78.4,54,78.8,54.2z"/>
		</g>
		<g>
			<path fill="#181818" d="M30.2,30.4c-3.1-3.3-4.6-7.6-4.2-12.6c0.3-4.2,3.9-7.5,8.2-7.6c2.1,0,4.1,0.8,5.4,2.2
				c1.4,1.5,2.1,3.9,1.9,6c-0.2,1.7-0.9,3-2,3.9c-1.3,1-3.2,1.1-4.5,0.2c-1.2-0.9-1.8-2.4-1.5-3.9c0.2-1,0.8-1.7,1.4-2.3
				c0.1-0.1,0.2-0.3,0.3-0.4c0.6-0.8,0.9-1.4,1-2c0-0.8-0.4-2.1-1.1-2.2c-0.3,0-0.5,0-0.8,0c-3.5,0-6.5,2.7-6.7,6.2
				c-0.3,4.5,1,8.4,3.8,11.4c2.9,3.1,7.3,4.9,11.9,4.9c5.5,0,10.8-3.2,13.7-8.1c2.5-4.3,2.8-9.9,1-15C55.7,5.6,50,1.5,44.2,1.5
				c-0.4,0-0.8-0.3-0.8-0.7c0-0.4,0.3-0.8,0.8-0.8c6.4,0,12.8,4.5,15,10.7c2,5.5,1.6,11.6-1.1,16.3c-3.1,5.4-9,8.9-15,8.9
				C38.2,35.8,33.4,33.9,30.2,30.4z M37.6,14.1c0,1.3-0.8,2.3-1.3,3c-0.1,0.1-0.3,0.3-0.4,0.4c-0.5,0.5-0.9,1-1,1.6
				c-0.2,0.9,0.2,1.8,0.9,2.4c0.7,0.5,1.9,0.5,2.7-0.1c1-0.8,1.4-2,1.5-2.8c0.2-1.7-0.4-3.7-1.5-4.9c-0.3-0.3-0.7-0.6-1.1-0.9
				C37.5,13.2,37.6,13.7,37.6,14.1z"/>
		</g>
	</g>
</g>
</svg>
