<svg enable-background="new 0 0 739 293.3" height="293.3" viewBox="0 0 739 293.3" width="739" xmlns="http://www.w3.org/2000/svg" xmlns:xlink="http://www.w3.org/1999/xlink"><linearGradient id="a" gradientUnits="userSpaceOnUse" x1="416.9891" x2="272.9624" y1="270.4221" y2="-104.7804"><stop offset="0" stop-color="#fff" stop-opacity=".325"/><stop offset=".3" stop-color="#fff" stop-opacity="0"/></linearGradient><linearGradient id="b" gradientUnits="userSpaceOnUse" x1="582.5387" x2="540.8951" y1="205.9446" y2="97.4593"><stop offset="0" stop-opacity=".4"/><stop offset=".5" stop-color="#808080" stop-opacity=".3"/><stop offset="1" stop-color="#fff" stop-opacity=".1"/></linearGradient><linearGradient id="c" gradientUnits="userSpaceOnUse" x1="503.2539" x2="597.523" y1="85.79" y2="344.7921"><stop offset="0"/><stop offset=".875" stop-opacity="0"/></linearGradient><svg viewBox="0 0 739 293.3"><path d="m739 0v134.8c0 2.7-1.3 4-3.6 4.4l-344.2 141.1c-24.7 8.2-51.2 13-79.4 13h427.2z" fill="url(#c)"/><path d="m739 0v134.8c0 2.7-1.3 4-3.6 4.4l-344.2 141.1c-24.7 8.2-51.2 13-79.4 13h427.2z" fill="#000" opacity="0.0"/><path d="m276.5 0h-20.2-256.3v293.3h256.4 20.2 35.3c28.2 0 54.6-4.8 79.4-13l35.4-14.5c123-60.3 193.3-198.7 193.3-198.7s97 76 115.8 72c2-.4 3.2-1.8 3.2-4.3v-134.8z" fill="url(#a)"/><path d="m735.8 139.1c-18.9 4-115.8-72-115.8-72s-70.2 138.4-193.4 198.7z" fill="url(#b)"/></svg></svg>