<?xml version="1.0" encoding="utf-8"?>
<!-- Generator: Adobe Illustrator 25.2.1, SVG Export Plug-In . SVG Version: 6.00 Build 0)  -->
<svg version="1.1" id="Layer_1" xmlns="http://www.w3.org/2000/svg" xmlns:xlink="http://www.w3.org/1999/xlink" x="0px" y="0px"
	 width="130px" height="130px" viewBox="0 0 130 130" style="enable-background:new 0 0 130 130;" xml:space="preserve">
<style type="text/css">
	.st0{fill:#181818;}
</style>
<g>
	<g>
		<path class="st0" d="M68.4,81.7c-3-0.9-6.3-3.6-8.4-6.9c-2.8,2-6,3.6-9.4,4.8c-0.3,0.1-0.6,0-0.8-0.2c-0.2-0.2-0.3-0.5-0.2-0.8
			c1.2-3.4,2.8-6.6,4.8-9.4c-3.4-2.1-6-5.3-6.9-8.4c-0.1-0.3,0-0.6,0.3-0.8c0.3-0.2,0.6-0.2,0.9,0c2.1,1.5,6.3,2.5,9.3,2.5
			c3.3,0,7.7-0.7,10.4-2.7c0.3-0.2,0.7-0.2,1,0.1s0.3,0.7,0.1,1c-2,2.6-2.7,7.1-2.7,10.4c0,2.9,0.9,7.2,2.5,9.3
			c0.2,0.3,0.2,0.6,0,0.9c-0.1,0.2-0.4,0.3-0.6,0.3C68.6,81.7,68.4,81.7,68.4,81.7z M58,64c-2.4,0-5.7-0.6-8.2-1.7
			c1.4,2.5,3.9,4.7,6.1,6c0.2,0.1,0.3,0.3,0.4,0.5c0,0.2,0,0.4-0.1,0.6c-1.8,2.4-3.3,5.2-4.5,8.1c3-1.2,5.7-2.7,8.1-4.5
			c0.2-0.1,0.4-0.2,0.6-0.1c0.2,0,0.4,0.2,0.5,0.4c1.3,2.2,3.5,4.7,6,6.1c-1.1-2.5-1.7-5.8-1.7-8.2c0-1.4,0.1-5.4,1.6-8.8
			C63.5,63.9,59.5,64,58,64z"/>
	</g>
	<g>
		<g>
			<path class="st0" d="M110.1,110.8c0.4,0,0.8-0.3,0.8-0.8V20c0-0.4-0.3-0.8-0.8-0.8h-90c-0.5,0.1-0.8,0.4-0.8,0.9
				c0,0.4,0.3,0.7,0.8,0.7h89.2v89.3C109.2,110.5,109.6,110.8,110.1,110.8z"/>
		</g>
		<g>
			<path class="st0" d="M110.1,48.1c0.1,0,0.3,0,0.4-0.1c0.3-0.2,0.4-0.7,0.2-1c-3.5-5.1-14.7-7.7-22.1-5.4
				c2.2-7.4-0.3-18.6-5.4-22.1c-0.3-0.2-0.8-0.1-1,0.2c-0.2,0.3-0.1,0.8,0.2,1c4.9,3.3,7.2,15.2,4.3,21.8c-0.1,0.3-0.1,0.6,0.2,0.8
				c0.2,0.2,0.5,0.3,0.8,0.2c6.7-2.9,18.5-0.5,21.8,4.3C109.6,48,109.8,48.1,110.1,48.1z"/>
		</g>
		<g>
			<path class="st0" d="M80.3,80.6c-3.4-3.2-5.4-8-5.4-13c0-6,3.5-11.9,8.9-15c4.7-2.7,10.8-3.1,16.3-1.1c6.2,2.3,10.7,8.6,10.7,15
				c0,0.4-0.3,0.8-0.8,0.8c-0.4,0-0.8-0.3-0.8-0.8c0-5.8-4.1-11.6-9.7-13.6c-5.1-1.9-10.7-1.5-15,1c-4.9,2.8-8.1,8.2-8.1,13.7
				c0,4.6,1.8,8.9,4.9,11.9c3,2.8,7,4.1,11.4,3.8c3.4-0.2,6.1-3.2,6.2-6.7c0-0.3,0-0.5,0-0.8c-0.1-0.7-1.4-1.2-2.2-1.1
				c-0.7,0-1.3,0.3-2,1c-0.1,0.1-0.3,0.2-0.4,0.3c-0.6,0.5-1.3,1.2-2.3,1.4c-1.4,0.3-3-0.3-3.9-1.5c-0.9-1.2-0.9-3.1,0.1-4.5
				c0.9-1.2,2.2-1.9,3.9-2c2.2-0.2,4.5,0.5,6,1.9c1.4,1.3,2.3,3.3,2.2,5.4c0,4.3-3.4,7.9-7.6,8.2c-0.4,0-0.9,0-1.3,0
				C87.2,84.9,83.3,83.4,80.3,80.6z M98.1,73.5c-0.2-0.4-0.5-0.8-0.9-1.1c-1.2-1.1-3.2-1.7-4.9-1.5c-0.8,0.1-2,0.4-2.8,1.4
				c-0.6,0.8-0.7,2-0.1,2.7c0.5,0.7,1.5,1.1,2.4,0.9c0.6-0.1,1-0.5,1.6-1c0.1-0.1,0.3-0.3,0.4-0.4c0.6-0.6,1.6-1.3,3-1.3h0.1
				C97.2,73.2,97.7,73.3,98.1,73.5z"/>
		</g>
		<g>
			<path class="st0" d="M49.5,49.7c-3.1-3.3-4.6-7.6-4.2-12.6c0.3-4.2,3.9-7.5,8.2-7.6c2.1,0,4.1,0.8,5.4,2.2c1.4,1.5,2.1,3.9,1.9,6
				c-0.2,1.7-0.9,3-2,3.9c-1.3,1-3.2,1.1-4.5,0.2c-1.2-0.9-1.8-2.4-1.5-3.9c0.2-1,0.8-1.7,1.4-2.3c0.1-0.1,0.2-0.3,0.3-0.4
				c0.6-0.8,0.9-1.4,1-2c0-0.8-0.4-2.1-1.1-2.2c-0.3,0-0.5,0-0.8,0c-3.5,0-6.5,2.7-6.7,6.2c-0.3,4.5,1,8.4,3.8,11.4
				c2.9,3.1,7.3,4.9,11.9,4.9c5.5,0,10.8-3.2,13.7-8.1c2.5-4.3,2.8-9.9,1-15c-2.3-5.5-8-9.6-13.8-9.6c-0.4,0-0.8-0.3-0.8-0.7
				s0.3-0.8,0.8-0.8c6.4,0,12.8,4.5,15,10.7c2,5.5,1.6,11.6-1.1,16.3c-3.1,5.4-9,8.9-15,8.9C57.5,55.1,52.7,53.2,49.5,49.7z
				 M56.8,33.4c0,1.3-0.8,2.3-1.3,3c-0.1,0.1-0.3,0.3-0.4,0.4c-0.5,0.5-0.9,1-1,1.6c-0.2,0.9,0.2,1.8,0.9,2.4
				c0.7,0.5,1.9,0.5,2.7-0.1c1-0.8,1.4-2,1.5-2.8c0.2-1.7-0.4-3.7-1.5-4.9c-0.3-0.3-0.7-0.6-1.1-0.9C56.8,32.5,56.8,33,56.8,33.4z"
				/>
		</g>
	</g>
</g>
</svg>
