<?xml version="1.0" encoding="utf-8"?>
<!-- Generator: Adobe Illustrator 25.2.1, SVG Export Plug-In . SVG Version: 6.00 Build 0)  -->
<svg version="1.1" id="Layer_1" xmlns="http://www.w3.org/2000/svg" xmlns:xlink="http://www.w3.org/1999/xlink" x="0px" y="0px"
	 width="91.5px" height="91.5px" viewBox="0 0 91.5 91.5" enable-background="new 0 0 91.5 91.5" xml:space="preserve">
<g>
	<g>
		<path fill="#181818" d="M49.4,29.1c0.2,0,0.5,0.1,0.6,0.3c0.2,0.3,0.2,0.6,0,0.9c-1.6,2.1-2.5,6.3-2.5,9.3c0,3.3,0.7,7.7,2.7,10.4
			c0.2,0.3,0.2,0.7-0.1,1c-0.3,0.3-0.7,0.3-1,0.1c-2.6-2-7.1-2.7-10.4-2.7c-2.9,0-7.2,0.9-9.3,2.5c-0.3,0.2-0.6,0.2-0.9,0
			c-0.3-0.2-0.4-0.5-0.3-0.8c0.9-3,3.6-6.3,6.9-8.4c-2-2.8-3.6-6-4.8-9.4c-0.1-0.3,0-0.6,0.2-0.8c0.2-0.2,0.5-0.3,0.8-0.2
			c3.4,1.2,6.6,2.8,9.4,4.8c2.1-3.4,5.3-6,8.4-6.9C49.2,29.1,49.3,29.1,49.4,29.1z M47.6,48.4c-1.5-3.4-1.6-7.5-1.6-8.8
			c0-2.4,0.6-5.7,1.7-8.2c-2.5,1.4-4.7,3.9-6,6.1c-0.1,0.2-0.3,0.3-0.5,0.4c-0.2,0-0.4,0-0.6-0.1c-2.4-1.8-5.2-3.3-8.1-4.5
			c1.2,3,2.7,5.7,4.5,8.1c0.1,0.2,0.2,0.4,0.1,0.6c0,0.2-0.2,0.4-0.4,0.5c-2.2,1.3-4.7,3.5-6.1,6c2.5-1.1,5.8-1.7,8.2-1.7
			C40.2,46.8,44.2,46.9,47.6,48.4z"/>
	</g>
	<g>
		<g>
			<path fill="#181818" d="M90.8,0c0.4,0,0.8,0.3,0.8,0.8v90c0,0.4-0.3,0.8-0.8,0.8h-90c-0.4,0-0.8-0.3-0.8-0.8
				C0,90.3,0.3,90,0.8,90H90V0.8C90,0.3,90.3,0,90.8,0z"/>
		</g>
		<g>
			<path fill="#181818" d="M90.8,62.7c0.1,0,0.3,0,0.4,0.1c0.3,0.2,0.4,0.7,0.2,1c-3.5,5.1-14.7,7.7-22.1,5.4
				c2.2,7.4-0.3,18.6-5.4,22.1c-0.3,0.2-0.8,0.1-1-0.2c-0.2-0.3-0.1-0.8,0.2-1c4.9-3.3,7.2-15.2,4.3-21.8c-0.1-0.3-0.1-0.6,0.2-0.8
				c0.2-0.2,0.5-0.3,0.8-0.2c6.7,2.9,18.5,0.5,21.8-4.3C90.3,62.8,90.5,62.7,90.8,62.7z"/>
		</g>
		<g>
			<path fill="#181818" d="M72.3,25.9c0.4,0,0.9,0,1.3,0c4.2,0.3,7.5,3.9,7.6,8.2c0,2.1-0.8,4.1-2.2,5.4c-1.5,1.4-3.9,2.1-6,1.9
				c-1.7-0.2-3-0.9-3.9-2c-1-1.3-1.1-3.2-0.2-4.5c0.9-1.2,2.4-1.8,3.9-1.5c1,0.2,1.7,0.8,2.3,1.4c0.1,0.1,0.3,0.2,0.4,0.3
				c0.7,0.6,1.4,0.9,2,1c0.8,0,2.1-0.4,2.2-1.1c0-0.2,0-0.5,0-0.8c0-3.5-2.7-6.5-6.2-6.7c-4.5-0.3-8.4,1-11.4,3.8
				c-3.1,2.9-4.9,7.3-4.9,11.9c0,5.5,3.2,10.8,8.1,13.7c4.3,2.5,9.9,2.8,15,1C85.9,55.7,90,50,90,44.2c0-0.4,0.3-0.8,0.8-0.8
				c0.4,0,0.8,0.3,0.8,0.8c0,6.4-4.5,12.8-10.7,15c-5.5,2-11.6,1.6-16.3-1.1c-5.4-3.1-8.9-9-8.9-15c0-5,2-9.8,5.4-13
				C64.1,27.4,68,25.9,72.3,25.9z M77.5,37.6C77.5,37.6,77.4,37.6,77.5,37.6c-1.4,0-2.4-0.8-3.1-1.3c-0.1-0.1-0.3-0.3-0.4-0.4
				c-0.5-0.5-1-0.9-1.6-1c-0.9-0.2-1.8,0.2-2.4,0.9c-0.5,0.7-0.5,1.9,0.1,2.7c0.8,1,2,1.4,2.8,1.5c1.7,0.2,3.7-0.4,4.9-1.5
				c0.3-0.3,0.6-0.7,0.9-1.1C78.4,37.5,77.9,37.6,77.5,37.6z"/>
		</g>
		<g>
			<path fill="#181818" d="M43.2,55.7c6,0,11.9,3.5,15,8.9c2.7,4.7,3.1,10.8,1.1,16.3c-2.3,6.2-8.6,10.7-15,10.7
				c-0.4,0-0.8-0.3-0.8-0.8c0-0.4,0.3-0.8,0.8-0.8c5.8,0,11.6-4.1,13.6-9.7c1.9-5.1,1.5-10.7-1-15c-2.8-4.9-8.2-8.1-13.7-8.1
				c-4.6,0-8.9,1.8-11.9,4.9c-2.8,3-4.1,6.9-3.8,11.4c0.2,3.4,3.2,6.1,6.7,6.2c0.3,0,0.5,0,0.8,0c0.7-0.1,1.1-1.4,1.1-2.2
				c0-0.7-0.3-1.3-1-2c-0.1-0.1-0.2-0.3-0.3-0.4c-0.5-0.6-1.2-1.3-1.4-2.3c-0.3-1.4,0.3-3,1.5-3.9C36.2,68,38,68,39.4,69
				c1.2,0.9,1.9,2.2,2,3.9c0.2,2.2-0.5,4.5-1.9,6c-1.3,1.4-3.2,2.2-5.4,2.2c-4.3,0-7.9-3.4-8.2-7.6c-0.3-4.9,1.2-9.3,4.2-12.6
				C33.4,57.6,38.2,55.7,43.2,55.7z M37.4,78.8c0.4-0.2,0.8-0.5,1.1-0.9c1.1-1.2,1.7-3.2,1.5-4.9c-0.1-0.9-0.4-2.1-1.5-2.8
				c-0.8-0.6-2-0.7-2.7-0.1c-0.7,0.5-1.1,1.5-0.9,2.4c0.1,0.6,0.5,1,1,1.6c0.1,0.1,0.3,0.3,0.4,0.4c0.6,0.6,1.3,1.6,1.3,3
				C37.6,77.8,37.5,78.4,37.4,78.8z"/>
		</g>
	</g>
</g>
</svg>
