<?xml version="1.0" encoding="utf-8"?>
<!-- Generator: Adobe Illustrator 25.2.1, SVG Export Plug-In . SVG Version: 6.00 Build 0)  -->
<svg version="1.1" id="Layer_1" xmlns="http://www.w3.org/2000/svg" xmlns:xlink="http://www.w3.org/1999/xlink" x="0px" y="0px"
	 width="91.5px" height="91.5px" viewBox="0 0 91.5 91.5" enable-background="new 0 0 91.5 91.5" xml:space="preserve">
<g>
	<g>
		<path fill="#181818" d="M42.1,62.4c-0.2,0-0.5-0.1-0.6-0.3c-0.2-0.3-0.2-0.6,0-0.9c1.6-2.1,2.5-6.3,2.5-9.3
			c0-3.3-0.7-7.7-2.7-10.4c-0.2-0.3-0.2-0.7,0.1-1c0.3-0.3,0.7-0.3,1-0.1c2.6,2,7.1,2.7,10.4,2.7c2.9,0,7.2-0.9,9.3-2.5
			c0.3-0.2,0.6-0.2,0.9,0c0.3,0.2,0.4,0.5,0.3,0.8c-0.9,3-3.6,6.3-6.9,8.4c2,2.8,3.6,6,4.8,9.4c0.1,0.3,0,0.6-0.2,0.8
			c-0.2,0.2-0.5,0.3-0.8,0.2c-3.4-1.2-6.6-2.8-9.4-4.8c-2.1,3.4-5.3,6-8.4,6.9C42.3,62.4,42.2,62.4,42.1,62.4z M43.9,43.1
			c1.5,3.4,1.6,7.5,1.6,8.8c0,2.4-0.6,5.7-1.7,8.2c2.5-1.4,4.7-3.9,6-6.1c0.1-0.2,0.3-0.3,0.5-0.4c0.2,0,0.4,0,0.6,0.1
			c2.4,1.8,5.2,3.3,8.1,4.5c-1.2-3-2.7-5.7-4.5-8.1c-0.1-0.2-0.2-0.4-0.1-0.6c0-0.2,0.2-0.4,0.4-0.5c2.2-1.3,4.7-3.5,6.1-6
			c-2.5,1.1-5.8,1.7-8.2,1.7C51.4,44.7,47.3,44.6,43.9,43.1z"/>
	</g>
	<g>
		<g>
			<path fill="#181818" d="M0.8,91.5c-0.4,0-0.8-0.3-0.8-0.8v-90C0,0.3,0.3,0,0.8,0h90c0.4,0,0.8,0.3,0.8,0.8c0,0.4-0.3,0.7-0.8,0.7
				H1.5v89.3C1.5,91.2,1.2,91.5,0.8,91.5z"/>
		</g>
		<g>
			<path fill="#181818" d="M0.7,28.8c-0.1,0-0.3,0-0.4-0.1c-0.3-0.2-0.4-0.7-0.2-1c3.5-5.1,14.7-7.7,22.1-5.4
				C20,14.8,22.6,3.6,27.6,0.1c0.3-0.2,0.8-0.1,1,0.2c0.2,0.3,0.1,0.8-0.2,1c-4.9,3.3-7.2,15.2-4.3,21.8c0.1,0.3,0.1,0.6-0.2,0.8
				c-0.2,0.2-0.5,0.3-0.8,0.2c-6.7-2.9-18.5-0.5-21.8,4.3C1.2,28.7,1,28.8,0.7,28.8z"/>
		</g>
		<g>
			<path fill="#181818" d="M19.2,65.6c-0.4,0-0.9,0-1.3,0c-4.2-0.3-7.5-3.9-7.6-8.2c0-2.1,0.8-4.1,2.2-5.4c1.5-1.4,3.9-2.1,6-1.9
				c1.7,0.2,3,0.9,3.9,2c1,1.3,1.1,3.2,0.2,4.5c-0.9,1.2-2.4,1.8-3.9,1.5c-1-0.2-1.7-0.8-2.3-1.4c-0.1-0.1-0.3-0.2-0.4-0.3
				c-0.7-0.6-1.4-0.9-2-1c-0.8,0-2.1,0.4-2.2,1.1c0,0.2,0,0.5,0,0.8c0,3.5,2.7,6.5,6.2,6.7c4.5,0.3,8.4-1,11.4-3.8
				c3.1-2.9,4.9-7.3,4.9-11.9c0-5.5-3.2-10.8-8.1-13.7c-4.3-2.5-9.9-2.8-15-1c-5.6,2.1-9.7,7.8-9.7,13.6c0,0.4-0.3,0.8-0.8,0.8
				c-0.4,0-0.8-0.3-0.8-0.8c0-6.4,4.5-12.8,10.7-15c5.5-2,11.6-1.6,16.3,1.1c5.4,3.1,8.9,9,8.9,15c0,5-2,9.8-5.4,13
				C27.4,64.1,23.5,65.6,19.2,65.6z M14,53.9C14,53.9,14.1,53.9,14,53.9c1.4,0,2.4,0.8,3.1,1.3c0.1,0.1,0.3,0.3,0.4,0.4
				c0.5,0.5,1,0.9,1.6,1c0.9,0.2,1.8-0.2,2.4-0.9c0.5-0.7,0.5-1.9-0.1-2.7c-0.8-1-2-1.4-2.8-1.5c-1.7-0.2-3.7,0.4-4.9,1.5
				c-0.3,0.3-0.6,0.7-0.9,1.1C13.1,54,13.6,53.9,14,53.9z"/>
		</g>
		<g>
			<path fill="#181818" d="M48.3,35.8c-6,0-11.9-3.5-15-8.9c-2.7-4.7-3.1-10.8-1.1-16.3C34.6,4.5,40.9,0,47.3,0
				c0.4,0,0.8,0.3,0.8,0.8c0,0.4-0.3,0.7-0.8,0.7c-5.8,0-11.6,4.1-13.6,9.7c-1.9,5.1-1.5,10.7,1,15c2.8,4.9,8.2,8.1,13.7,8.1
				c4.6,0,8.9-1.8,11.9-4.9c2.8-3,4.1-6.9,3.8-11.4c-0.2-3.4-3.2-6.1-6.7-6.2c-0.3,0-0.5,0-0.8,0c-0.7,0.1-1.1,1.4-1.1,2.2
				c0,0.7,0.3,1.3,1,2c0.1,0.1,0.2,0.3,0.3,0.4c0.5,0.6,1.2,1.3,1.4,2.3c0.3,1.4-0.3,3-1.5,3.9c-1.3,0.9-3.1,0.8-4.5-0.2
				c-1.2-0.9-1.9-2.2-2-3.9c-0.2-2.2,0.5-4.5,1.9-6c1.3-1.4,3.2-2.2,5.4-2.2c4.3,0,7.9,3.4,8.2,7.6c0.3,4.9-1.2,9.3-4.2,12.6
				C58.1,33.9,53.3,35.8,48.3,35.8z M54.2,12.7c-0.4,0.2-0.8,0.5-1.1,0.9c-1.1,1.2-1.7,3.2-1.5,4.9c0.1,0.9,0.4,2.1,1.5,2.8
				c0.8,0.6,2,0.7,2.7,0.1c0.7-0.5,1.1-1.5,0.9-2.4c-0.1-0.6-0.5-1-1-1.6c-0.1-0.1-0.3-0.3-0.4-0.4c-0.6-0.6-1.3-1.6-1.3-3
				C53.9,13.7,54,13.2,54.2,12.7z"/>
		</g>
	</g>
</g>
</svg>
